<svg id="Livello_1" data-name="Livello 1" xmlns="http://www.w3.org/2000/svg" viewBox="0 0 1512.65 541.02"><defs><style>.cls-1{fill:none;stroke-width:50px;}.cls-1,.cls-2{stroke:#000;stroke-miterlimit:10;}.cls-2{font-size:75px;stroke-width:2px;font-family:MyriadPro-Regular, Myriad Pro;letter-spacing:0.02em;}.cls-10,.cls-11,.cls-12,.cls-13,.cls-14,.cls-15,.cls-3,.cls-4,.cls-5,.cls-6,.cls-7,.cls-8{font-size:65.28px;}.cls-3{letter-spacing:0.02em;}.cls-4{letter-spacing:0.02em;}.cls-5{letter-spacing:-0.06em;}.cls-6{letter-spacing:0.02em;}.cls-7{letter-spacing:-0.02em;}.cls-8{letter-spacing:0.05em;}.cls-9{letter-spacing:0.02em;}.cls-10{letter-spacing:-0.04em;}.cls-11{letter-spacing:-0.02em;}.cls-12{letter-spacing:-0.02em;}.cls-13{letter-spacing:-0.06em;}.cls-14{letter-spacing:-0.02em;}.cls-15{letter-spacing:-0.01em;}</style></defs><circle class="cls-1" cx="834.91" cy="201.59" r="175.59"/><path d="M743.37,88.55c4.18-2.25,6.81-2.94,8.94-3.12a5.21,5.21,0,0,1,4.5,1.32l5.94,5.72,11.86,11.44,23.74,22.88c15.85,15.23,31.55,30.6,47.33,45.9q11.85,11.46,23.58,23l23.52,23.09c15.65,15.42,31.18,31,46.77,46.45s31,31.17,46.39,46.84L1009,335.67c7.69,7.85,15.38,15.69,23,23.6,15.27,15.81,30.62,31.54,45.83,47.4l22.84,23.78,11.42,11.88,5.71,5.95a4.51,4.51,0,0,1,1.65,4.18,15.36,15.36,0,0,1-.85,3.76c-.11.35-.3.78-.47,1.19l-.53,1.26-.7,1.43-.9,1.63-19.58,19.58-1.63.9-1.43.71-1.26.52a12.65,12.65,0,0,1-1.19.47,14.46,14.46,0,0,1-3.77.85,5.47,5.47,0,0,1-2.55-.36,5.74,5.74,0,0,1-1.63-1.29L1077,477.4,1065.14,466l-23.77-22.84c-15.87-15.21-31.6-30.56-47.4-45.83q-11.87-11.44-23.6-23l-23.56-23.06c-15.67-15.4-31.23-30.92-46.84-46.38s-31-31.12-46.45-46.78l-23.1-23.52q-11.55-11.75-23-23.57c-15.29-15.78-30.66-31.49-45.9-47.33l-22.87-23.74-11.44-11.87-5.72-5.93a5.25,5.25,0,0,1-1.33-4.5c.19-2.13.88-4.76,3.12-9Z" transform="translate(-84.39 -84)"/><path class="cls-1" d="M1435.52,461.18a175.59,175.59,0,0,1-175.59-175.59q0-6.81.51-13.5A175.62,175.62,0,0,1,1435.52,110" transform="translate(-84.39 -84)"/><line class="cls-1" x1="1350.13" y1="26" x2="1511.65" y2="26"/><line class="cls-1" x1="1176.05" y1="188.09" x2="1512.65" y2="188.09"/><line class="cls-1" x1="1350.13" y1="377.18" x2="1511.65" y2="377.18"/><path class="cls-1" d="M285,460.66A175.59,175.59,0,0,1,109.39,285.07q0-6.81.51-13.5A175.62,175.62,0,0,1,285,109.48" transform="translate(-84.39 -84)"/><line class="cls-1" x1="199.59" y1="25" x2="494.2" y2="25"/><line class="cls-1" x1="199.59" y1="377.18" x2="494.2" y2="377.18"/><text class="cls-2" transform="translate(112.8 521.27)">C<tspan class="cls-3" x="44.85" y="0">LASSIFI</tspan><tspan class="cls-4" x="251.19" y="0">C</tspan><tspan class="cls-5" x="290.49" y="0">A</tspan><tspan class="cls-6" x="326.58" y="0" xml:space="preserve">TION  </tspan><tspan x="497.28" y="0">Q</tspan><tspan class="cls-7" x="550.31" y="0">U</tspan><tspan class="cls-3" x="591.5" y="0">ALI</tspan><tspan class="cls-8" x="681.38" y="0">T</tspan><tspan class="cls-3" x="716.83" y="0" xml:space="preserve">Y  </tspan><tspan class="cls-9" x="783.34" y="0">E</tspan><tspan class="cls-10" x="821.59" y="0">V</tspan><tspan class="cls-3" x="855.47" y="0">A</tspan><tspan class="cls-11" x="896.6" y="0">L</tspan><tspan class="cls-12" x="926.23" y="0">U</tspan><tspan class="cls-13" x="967.42" y="0">A</tspan><tspan class="cls-3" x="1003.52" y="0">TION </tspan><tspan class="cls-14" x="1159.2" y="0"> </tspan><tspan class="cls-15" x="1171.54" y="0">T</tspan><tspan class="cls-3" x="1203.4" y="0">OOL</tspan></text></svg>